<?xml version="1.0" standalone="no"?>
<!DOCTYPE svg PUBLIC "-//W3C//DTD SVG 20010904//EN"
 "http://www.w3.org/TR/2001/REC-SVG-20010904/DTD/svg10.dtd">
<svg version="1.0" xmlns="http://www.w3.org/2000/svg"
 width="767.000000pt" height="1046.000000pt" viewBox="0 0 767.000000 1046.000000"
 preserveAspectRatio="xMidYMid meet">

<g transform="translate(0.000000,1046.000000) scale(0.100000,-0.100000)"
fill="#000000" stroke="none">
<path d="M1775 10375 c-338 -55 -620 -204 -899 -474 -226 -221 -325 -402 -343
-630 -12 -163 35 -344 157 -598 76 -158 80 -178 64 -331 l-7 -60 -32 5 c-47 8
-142 -15 -208 -50 -158 -83 -278 -323 -264 -527 12 -167 85 -369 180 -497 107
-144 297 -245 510 -269 l57 -7 0 -82 c0 -115 17 -275 40 -372 48 -203 157
-339 405 -503 44 -29 82 -55 84 -57 3 -1 -5 -13 -16 -26 -28 -29 -77 -130 -93
-191 -15 -56 -19 -172 -7 -232 l8 -40 -95 -73 c-234 -178 -277 -276 -306 -706
-6 -88 -18 -193 -25 -233 l-14 -73 -155 -162 c-314 -328 -431 -511 -444 -694
-6 -89 17 -171 95 -333 l55 -115 -6 -100 c-19 -334 -19 -351 -1 -431 44 -199
141 -344 325 -484 103 -78 155 -110 380 -235 213 -117 341 -201 409 -266 64
-62 121 -155 121 -198 0 -20 11 -103 25 -184 14 -82 25 -150 25 -152 0 -2 44
-3 98 -2 107 2 152 -9 278 -70 85 -41 162 -106 213 -182 93 -136 215 -216 331
-215 84 0 137 24 217 98 l62 58 93 -58 c134 -83 313 -167 447 -210 72 -23 127
-48 146 -64 50 -44 144 -113 245 -178 214 -138 308 -146 398 -33 20 25 37 47
37 48 1 2 64 19 141 38 328 85 556 180 714 299 190 143 417 413 534 635 47 91
66 114 223 275 l172 174 33 -10 c60 -18 114 5 185 77 61 62 64 64 94 53 17 -6
65 -8 107 -6 94 5 178 43 264 119 175 153 238 382 187 672 -10 56 -9 59 19 95
43 55 43 57 32 107 -10 47 -10 48 29 90 21 23 56 68 76 99 36 53 72 76 121 76
7 0 14 28 17 68 4 37 11 114 16 172 5 58 16 129 24 157 27 94 30 147 13 213
-9 34 -14 66 -10 71 3 5 25 14 49 20 54 14 55 15 90 109 15 41 52 126 81 188
l53 113 -93 152 c-51 84 -112 184 -135 224 -24 40 -60 92 -82 117 -44 50 -127
96 -174 96 -26 0 -37 8 -63 46 -22 30 -48 53 -83 68 l-50 24 27 31 c14 17 78
70 142 118 160 120 252 209 287 280 24 48 29 72 30 138 1 60 7 92 24 129 35
74 27 149 -22 212 -20 26 -37 55 -37 64 0 10 -7 78 -16 152 l-15 135 32 52
c48 77 51 147 10 224 -49 91 -65 269 -65 742 -1 407 2 437 63 688 l18 78 -41
23 c-22 13 -85 47 -139 75 l-97 52 -20 -48 c-43 -101 -45 -98 -24 28 7 43 5
46 -229 203 -124 84 -163 106 -180 100 -12 -4 -106 -44 -210 -90 -103 -47
-272 -113 -375 -148 -103 -36 -202 -70 -219 -76 -22 -8 -33 -19 -33 -31 0 -24
-6 -24 -37 0 l-24 20 -67 -54 c-76 -62 -238 -148 -360 -191 -92 -32 -87 -24
-66 -110 l7 -29 -35 33 -35 33 -74 -62 c-41 -34 -108 -84 -149 -112 -41 -28
-92 -63 -113 -80 l-37 -29 45 -50 c166 -185 277 -465 395 -1001 26 -119 27
-132 14 -169 -28 -79 -12 -158 43 -219 31 -35 37 -48 43 -112 5 -39 14 -104
21 -143 12 -69 12 -72 -14 -124 -44 -88 -33 -168 37 -259 14 -19 23 -38 20
-43 -11 -17 18 -119 42 -147 l24 -29 -30 -57 c-49 -94 -36 -178 51 -311 l51
-78 -68 -60 c-139 -121 -260 -250 -297 -316 -78 -142 -88 -274 -29 -392 28
-56 30 -68 22 -108 -18 -95 25 -212 130 -350 31 -41 62 -85 68 -97 18 -34 14
-111 -11 -183 -21 -62 -24 -66 -79 -94 -44 -22 -76 -30 -134 -34 -70 -4 -76
-7 -87 -31 -6 -15 -11 -86 -11 -166 l0 -141 -41 -31 c-22 -17 -72 -56 -111
-86 l-71 -56 -12 127 c-10 115 -31 232 -161 912 -71 368 -143 590 -248 760
-71 117 -228 278 -362 372 -113 79 -154 126 -208 235 -101 208 -275 389 -465
485 l-78 39 89 97 c179 193 328 330 508 465 239 180 306 253 384 420 61 131
81 220 87 392 6 177 -12 287 -71 430 l-35 87 35 46 c164 215 205 553 92 764
-42 79 -123 152 -193 174 -30 10 -55 23 -55 30 0 7 9 36 20 65 19 48 20 53 5
76 -9 14 -15 26 -13 27 2 1 41 10 88 20 47 10 111 28 142 41 71 29 227 135
269 183 75 85 102 203 75 330 -33 160 -140 317 -375 553 -159 159 -284 255
-435 331 -74 38 -193 68 -266 68 -130 0 -292 -63 -452 -177 -50 -35 -91 -63
-92 -61 -2 2 -18 37 -38 78 -129 275 -382 429 -841 511 -148 27 -390 33 -512
14z m550 -130 c184 -34 242 -54 366 -127 205 -120 288 -206 330 -338 13 -38
21 -71 18 -73 -2 -3 -96 -32 -209 -65 -383 -114 -576 -185 -763 -278 -249
-125 -444 -298 -601 -534 l-57 -85 -120 -12 c-142 -14 -269 -44 -358 -84 -35
-16 -65 -29 -67 -29 -9 0 -96 186 -132 285 -64 169 -76 226 -76 355 -1 96 3
126 23 184 46 134 186 312 359 458 258 216 495 326 792 368 111 15 340 4 495
-25z m1525 -366 c123 -28 280 -132 446 -296 96 -95 265 -296 334 -398 80 -118
100 -226 57 -318 l-22 -48 -1 59 c-1 40 -9 75 -24 106 -31 65 -407 475 -528
575 -214 180 -382 217 -598 136 -148 -56 -352 -203 -535 -385 -134 -133 -229
-253 -325 -413 -32 -54 -81 -120 -108 -147 l-50 -50 -85 0 c-218 0 -625 26
-803 51 -64 9 -76 14 -71 28 23 61 240 283 363 370 186 131 364 207 815 351
116 37 221 70 234 75 18 5 2 -17 -59 -86 -45 -52 -116 -139 -157 -194 -80
-107 -215 -316 -208 -323 11 -11 133 110 280 278 315 359 535 539 750 612 88
30 208 37 295 17z m-40 -265 c128 -38 261 -143 496 -392 222 -235 264 -290
264 -346 0 -53 -44 -109 -118 -149 l-50 -27 -6 53 c-10 75 -47 149 -109 215
-31 33 -60 74 -67 97 -18 55 -56 130 -100 196 -84 123 -286 281 -425 331 -52
20 -57 23 -35 29 43 12 94 10 150 -7z m-157 -110 c216 -56 420 -253 484 -468
9 -30 33 -71 60 -103 30 -34 51 -73 64 -114 11 -34 18 -64 16 -66 -2 -2 -23
21 -47 52 -124 161 -345 313 -525 360 -173 46 -473 19 -670 -60 -14 -6 -12 -2
7 14 45 36 170 90 248 107 103 22 296 14 400 -16 130 -37 290 -122 394 -207
16 -13 30 -22 33 -20 7 8 -44 133 -73 178 -71 113 -186 214 -305 268 -126 57
-303 76 -393 41 -14 -5 -26 -7 -26 -5 0 6 59 36 90 46 44 13 180 10 243 -7z
m-163 -654 c237 -25 257 -36 335 -170 112 -195 179 -439 229 -828 20 -153 20
-156 -5 -109 -11 22 -23 37 -26 34 -9 -10 28 -228 47 -277 10 -26 52 -113 93
-192 112 -219 143 -342 134 -527 -3 -58 -12 -133 -21 -166 -36 -135 -153 -324
-253 -410 -21 -17 -91 -70 -156 -117 -158 -114 -250 -199 -422 -391 -155 -172
-290 -295 -354 -320 -95 -38 -243 -30 -398 23 -122 42 -269 123 -523 290 -124
81 -331 212 -460 290 -273 166 -349 220 -422 298 -67 73 -103 140 -128 237
-21 84 -40 277 -40 416 0 100 12 88 -105 109 -260 48 -460 187 -558 390 -114
234 -100 469 36 617 77 83 166 109 273 78 116 -34 199 -101 356 -287 123 -146
242 -242 189 -152 -12 19 -21 37 -21 40 0 11 119 0 216 -21 21 -5 22 0 28 103
16 244 65 557 110 707 9 28 16 55 16 62 0 7 -28 22 -62 35 -50 18 -58 24 -38
27 25 3 352 -14 466 -26 l62 -6 -14 -51 c-13 -49 -40 -324 -32 -331 2 -2 31
10 66 26 106 51 239 80 392 85 l135 4 3 42 c3 40 -12 179 -24 224 -4 15 4 32
25 57 17 19 36 49 42 65 10 29 16 32 117 56 283 67 493 87 692 66z m739 -700
c57 -29 101 -77 135 -150 28 -60 31 -73 30 -165 0 -82 -5 -112 -26 -167 -25
-66 -128 -251 -136 -243 -2 2 -8 38 -13 80 -9 74 -9 77 16 106 48 57 26 195
-34 214 -26 8 -27 31 -1 73 34 55 84 40 119 -38 l16 -35 3 58 c3 67 -12 105
-50 126 -26 15 -63 11 -119 -13 -20 -9 -39 38 -39 96 0 78 28 95 99 58z m2628
-82 c97 -66 139 -100 144 -118 4 -14 12 -93 19 -177 11 -134 26 -242 29 -205
1 11 118 270 126 280 3 3 104 -45 113 -53 1 -1 -8 -40 -22 -86 -41 -144 -51
-251 -50 -549 1 -263 12 -449 38 -627 7 -46 9 -83 6 -83 -3 0 -14 6 -23 13
-18 13 -29 63 -48 219 -6 54 -15 95 -20 92 -12 -7 -10 -104 5 -201 6 -46 11
-83 10 -83 0 0 -15 5 -31 11 -29 10 -30 12 -25 55 5 49 -15 261 -28 283 -10
18 -25 -225 -17 -280 5 -37 4 -39 -22 -39 l-27 0 -12 253 c-18 360 -48 582
-123 886 -40 162 -127 446 -135 438 -2 -2 18 -123 45 -268 109 -582 151 -900
151 -1143 0 -139 -4 -156 -39 -156 l-26 0 3 82 c2 46 -1 101 -6 123 -7 36 -10
27 -21 -80 -11 -110 -22 -142 -43 -129 -4 3 -8 44 -9 92 0 48 -6 134 -13 192
-11 95 -13 101 -21 66 -4 -22 -5 -110 -2 -197 l5 -157 -41 -5 c-23 -3 -43 -5
-44 -3 -1 1 -7 68 -12 148 -6 80 -16 170 -22 200 -24 115 -30 82 -24 -139 6
-215 5 -223 -13 -223 -11 0 -39 -3 -63 -6 l-44 -6 -2 114 c-3 140 -23 319 -34
312 -5 -3 -9 -101 -9 -219 l0 -213 -31 -7 c-17 -4 -33 -5 -36 -2 -2 3 -9 41
-14 84 -11 84 -57 314 -65 322 -3 3 -3 -24 0 -59 15 -168 27 -352 24 -355 -2
-1 -15 -5 -30 -9 -32 -7 -29 -17 -64 184 -14 85 -35 180 -45 210 l-19 55 6
-80 c2 -44 13 -132 24 -195 33 -202 35 -183 -27 -194 l-32 -5 -6 57 c-8 64
-53 283 -60 291 -9 9 -5 -86 11 -218 8 -73 14 -135 12 -136 -2 -2 -25 -5 -52
-7 -58 -4 -48 -25 -102 217 -19 88 -38 162 -41 165 -10 9 8 -131 33 -264 14
-70 23 -130 20 -133 -2 -3 -23 -7 -45 -10 -37 -5 -41 -3 -41 15 0 82 -121 575
-137 558 -2 -2 19 -131 47 -287 28 -155 48 -289 46 -296 -3 -7 -16 -13 -30
-13 -22 0 -26 9 -65 153 -56 202 -104 353 -108 341 -2 -6 8 -64 22 -130 65
-298 79 -373 74 -379 -4 -3 -19 -7 -35 -8 -27 -2 -29 1 -36 50 -9 58 -41 150
-63 179 -17 22 -17 19 16 -145 10 -52 16 -98 13 -103 -6 -9 -54 -11 -54 -3 0
18 -93 341 -113 391 -65 165 -61 121 17 -171 36 -132 64 -241 62 -242 -1 -1
-13 -4 -26 -5 -23 -3 -25 2 -41 82 -25 133 -28 133 -26 5 2 -100 0 -120 -13
-120 -11 0 -17 25 -26 108 -35 316 -138 618 -305 893 -28 47 -49 86 -48 88 2
1 32 18 65 38 l62 36 40 -42 c51 -53 126 -168 210 -324 36 -68 68 -120 70
-114 5 15 -57 407 -79 505 -12 48 -18 94 -16 101 12 30 289 206 325 206 4 0
21 -39 36 -87 38 -117 112 -305 147 -373 l28 -55 -7 115 c-4 63 -7 200 -7 304
l0 188 149 69 c82 38 195 87 250 109 184 71 341 128 358 129 9 1 79 -41 155
-91z m277 -1659 c98 -17 161 -59 186 -123 14 -38 5 -61 -29 -76 -30 -12 -56
-5 -92 26 -9 8 -54 24 -100 35 -76 20 -102 21 -269 16 -197 -6 -344 -26 -577
-77 -154 -33 -515 -128 -636 -166 -128 -40 -147 -34 -147 45 0 46 30 88 76
107 45 19 478 105 795 158 230 38 356 56 514 70 57 5 209 -3 279 -15z m-187
-205 l30 -6 6 -127 c8 -175 10 -171 -73 -171 -206 0 -538 -56 -997 -169 -197
-49 -359 -88 -360 -86 -7 5 -31 281 -25 286 11 11 712 185 880 219 239 48 459
70 539 54z m209 -36 c93 -34 111 -74 113 -254 l1 -71 -96 33 c-52 17 -101 37
-107 43 -6 6 -12 68 -15 146 l-5 136 29 -7 c16 -4 52 -15 80 -26z m-5469 -369
c7 -19 12 -50 12 -69 0 -31 -1 -33 -11 -15 -16 30 -18 31 -28 15 -6 -8 -10
-48 -10 -89 0 -57 5 -86 22 -120 30 -63 174 -203 343 -336 77 -60 217 -171
311 -246 94 -74 217 -166 273 -204 118 -80 110 -53 86 -300 -24 -252 -36 -335
-49 -327 -6 4 -49 32 -96 63 -47 31 -161 98 -255 149 -288 157 -410 244 -560
401 -89 93 -204 251 -235 323 -30 72 -27 136 12 207 18 33 36 59 39 59 4 0 23
-31 43 -70 20 -38 41 -72 47 -75 11 -7 13 -15 -37 185 -47 190 -54 299 -25
364 25 58 79 128 95 123 6 -2 16 -19 23 -38z m5391 11 c142 -18 240 -68 278
-141 18 -36 18 -69 0 -69 -8 0 -36 12 -64 26 -28 15 -89 32 -143 41 -117 20
-271 10 -649 -42 -531 -74 -741 -120 -892 -196 -55 -28 -58 -28 -68 -10 -16
31 -12 96 8 113 16 15 525 145 812 207 329 71 544 92 718 71z m-5193 -89 c68
-31 209 -121 260 -165 25 -22 14 -19 -62 19 -51 25 -97 45 -103 45 -6 0 4 -28
22 -62 39 -74 222 -264 309 -321 117 -76 237 -99 324 -63 21 9 39 16 40 16 1
0 5 -27 8 -60 4 -33 16 -78 26 -99 19 -36 73 -91 90 -91 5 0 2 24 -6 53 -7 28
-12 62 -11 75 6 45 118 -147 118 -201 0 -37 -64 -87 -112 -87 -27 0 -153 62
-236 117 -103 68 -553 434 -649 527 l-93 91 0 118 c0 64 2 117 5 117 3 0 35
-13 70 -29z m5173 -211 c1 -31 -1 -50 -6 -43 -5 8 -13 -9 -20 -47 -17 -81 -57
-130 -182 -220 -57 -41 -119 -94 -136 -117 -71 -93 -99 -237 -92 -470 4 -143
2 -155 -30 -135 -17 11 -41 144 -49 267 -7 130 8 245 56 403 51 165 61 218 61
306 l0 74 33 6 c17 3 93 11 167 17 74 6 137 13 140 16 2 2 16 3 30 1 23 -3 25
-7 28 -58z m-430 -63 c-4 -56 -19 -127 -48 -222 -23 -77 -48 -169 -56 -205
-21 -100 -17 -297 11 -501 l5 -36 -123 -7 c-67 -4 -143 -11 -168 -15 l-46 -7
27 43 c39 62 53 122 48 206 -8 125 -80 244 -201 333 -34 25 -63 47 -64 48 -2
1 -14 76 -29 165 -19 122 -23 165 -14 171 18 11 463 85 654 109 5 1 7 -36 4
-82z m-694 -104 c3 -38 8 -104 12 -147 l6 -79 -24 7 c-73 20 -157 27 -206 18
-49 -9 -54 -8 -72 15 -41 53 -50 144 -16 172 13 11 249 79 277 80 14 1 18 -12
23 -66z m-2419 -175 c84 -62 161 -156 239 -290 l27 -47 -61 25 c-34 14 -65 23
-68 19 -10 -9 89 -97 246 -219 84 -64 152 -121 152 -126 0 -5 -40 -69 -90
-144 -49 -74 -99 -154 -110 -177 l-22 -41 39 -32 c199 -163 361 -410 518 -791
85 -208 138 -331 145 -338 13 -15 45 10 96 73 l49 60 13 -63 c51 -247 75 -552
52 -671 -7 -37 -14 -65 -16 -64 -6 6 -64 397 -71 474 -3 41 -9 77 -13 79 -7 5
-19 -166 -21 -305 l-1 -85 -30 95 c-98 318 -124 396 -165 495 -90 221 -232
472 -375 661 -85 114 -259 298 -328 349 -39 28 -53 48 -75 103 -75 182 -194
412 -278 536 -37 55 -38 59 -16 53 13 -4 79 -10 147 -14 94 -5 122 -3 122 6 0
16 -158 303 -216 394 -24 37 -44 70 -44 72 0 10 97 -44 155 -87z m-2180 -25
c0 -89 3 -104 32 -165 39 -83 78 -140 146 -215 87 -96 90 -88 -31 -88 -94 0
-175 -15 -160 -30 2 -2 64 -20 138 -39 74 -20 145 -39 158 -42 l23 -7 -28 -29
c-46 -49 -178 -157 -328 -268 -244 -180 -310 -257 -303 -352 l3 -49 -105 -62
c-136 -79 -269 -209 -317 -309 -18 -36 -33 -69 -33 -72 0 -15 29 -3 64 26 30
25 37 27 33 12 -4 -10 -16 -59 -28 -109 -12 -49 -25 -94 -29 -98 -4 -4 -20 20
-36 55 -26 56 -29 74 -29 159 0 92 1 99 42 180 46 92 127 198 297 387 148 164
217 259 271 367 49 99 88 230 83 273 -4 24 -8 20 -35 -38 -37 -76 -39 -68 -23
91 26 261 57 360 146 462 27 30 49 56 49 56 0 1 0 -43 0 -96z m4557 -134 c89
-23 207 -129 249 -225 59 -132 -26 -343 -156 -388 -72 -26 -163 -78 -217 -126
-53 -46 -113 -118 -105 -126 3 -3 61 24 130 59 199 102 430 157 665 157 68 0
207 -9 309 -21 102 -11 202 -19 221 -17 l35 3 -26 31 c-15 18 -45 41 -66 51
l-39 20 50 43 c102 88 170 102 250 51 46 -29 175 -191 259 -326 l41 -65 -42
-95 c-23 -53 -49 -127 -58 -164 l-16 -69 -84 -32 c-104 -39 -177 -103 -186
-162 -3 -21 -9 -55 -12 -75 -8 -54 -64 -105 -139 -127 -98 -29 -92 -26 -74
-36 35 -20 125 -23 181 -6 92 26 132 82 140 195 6 77 48 22 48 -62 0 -22 -13
-99 -30 -171 -16 -72 -32 -147 -35 -168 -5 -35 -7 -36 -58 -43 -90 -11 -164
-36 -201 -67 -35 -28 -72 -85 -63 -94 2 -3 38 4 78 16 78 21 129 26 129 11 0
-5 -15 -31 -33 -57 -54 -78 -68 -112 -73 -173 -4 -44 -12 -68 -41 -109 -63
-93 -161 -167 -245 -187 l-28 -7 0 60 c0 320 -229 632 -478 650 -57 4 -78 0
-129 -20 l-62 -25 -48 34 c-79 58 -199 111 -278 124 -57 10 -76 17 -83 33 -5
12 -42 66 -82 121 -133 185 -152 251 -110 406 31 116 41 161 36 166 -3 3 -19
-16 -37 -41 -18 -25 -36 -46 -41 -46 -14 0 -30 86 -24 135 12 102 55 165 246
360 185 190 228 249 255 350 27 107 -15 175 -109 175 l-39 0 43 -40 c38 -35
42 -43 36 -71 -3 -17 -16 -48 -28 -67 l-21 -35 -24 29 c-13 16 -35 53 -49 81
-72 145 60 235 268 182z m-2839 -324 c-20 -39 -82 -115 -93 -115 -5 0 -28 23
-51 52 l-41 52 37 18 c25 14 43 34 62 73 l27 54 37 -52 c36 -50 37 -52 22 -82z
m222 103 c45 -63 140 -217 190 -306 56 -102 129 -262 122 -268 -2 -2 -23 6
-46 18 -35 20 -66 60 -211 279 -94 141 -170 266 -170 278 0 19 6 21 50 21 39
0 52 -4 65 -22z m3667 -118 c21 -6 40 -14 42 -19 5 -7 -86 -71 -100 -71 -7 0
-5 86 3 93 8 9 11 9 55 -3z m-3705 -193 c41 -65 73 -120 71 -123 -13 -13 -273
113 -305 148 l-23 24 63 66 62 65 28 -31 c15 -17 62 -84 104 -149z m3480 36
c-2 -21 -4 -6 -4 32 0 39 2 55 4 38 2 -18 2 -50 0 -70z m-3819 -60 c37 -56 89
-137 117 -180 45 -71 50 -76 53 -51 3 28 4 27 155 -74 364 -245 585 -462 746
-729 53 -90 152 -294 189 -389 85 -226 259 -757 250 -766 -9 -8 -338 -90 -338
-84 0 4 48 58 107 119 l106 112 -87 177 c-173 349 -342 605 -523 793 -106 109
-205 194 -221 187 -5 -1 -78 -82 -162 -178 -85 -96 -206 -230 -269 -298 -64
-67 -117 -128 -119 -135 -1 -7 26 -36 60 -64 146 -119 306 -295 275 -301 -23
-5 -124 15 -154 30 -15 7 -37 33 -50 58 -41 80 -133 140 -216 140 -32 0 -90
54 -109 100 -6 16 -7 103 -3 235 6 179 5 220 -9 275 -30 117 -34 110 -55 -112
-10 -99 -29 -203 -37 -196 -1 2 -10 60 -19 128 -28 216 -51 276 -142 371 -106
111 -346 248 -561 319 l-117 39 65 1 c36 1 74 5 85 10 17 7 11 12 -40 35 -154
71 -474 28 -750 -99 l-77 -36 6 33 c4 17 19 48 34 67 34 42 185 164 347 280
66 47 159 123 207 169 102 98 88 98 213 4 101 -76 172 -120 410 -251 105 -58
238 -136 297 -174 59 -38 115 -68 125 -66 29 5 51 64 59 159 3 49 10 89 14 89
4 0 83 -25 176 -54 92 -30 170 -53 173 -50 17 16 -135 132 -273 209 l-68 38 6
51 c3 28 6 87 6 130 l0 79 26 -24 c14 -13 55 -70 92 -126z m1318 -66 c132
-139 130 -128 47 -234 -38 -48 -82 -107 -98 -129 l-29 -42 -104 105 c-56 58
-102 109 -100 114 7 18 184 279 189 279 4 0 47 -42 95 -93z m-1117 -41 c21
-14 116 -68 210 -120 288 -160 372 -227 533 -420 338 -404 533 -811 641 -1332
42 -204 42 -191 8 -196 l-29 -4 -42 145 c-107 367 -203 626 -320 866 -201 411
-409 629 -876 920 -87 54 -160 99 -160 99 -5 2 -14 66 -10 66 4 0 24 -11 45
-24z m1314 -225 c15 -27 39 -79 53 -117 25 -67 106 -365 101 -371 -4 -4 -277
412 -277 421 0 10 83 116 91 116 3 0 18 -22 32 -49z m166 -689 c39 -78 71
-154 71 -169 0 -17 -15 -42 -45 -74 -44 -47 -46 -48 -55 -26 -4 12 -57 130
-117 262 -100 221 -162 344 -227 451 l-25 41 26 37 27 37 137 -208 c77 -118
168 -270 208 -351z m-2877 469 c174 -56 525 -248 639 -350 59 -51 90 -103 118
-191 18 -56 71 -286 71 -307 0 -3 -33 26 -74 65 -41 40 -77 72 -80 72 -3 0 3
-23 13 -50 17 -46 77 -134 167 -248 37 -47 37 -62 -1 -62 -43 0 -318 -50 -440
-79 -138 -34 -370 -114 -340 -119 11 -1 146 13 300 32 154 19 281 33 283 32 1
-2 -30 -25 -70 -51 -125 -83 -265 -194 -327 -260 -111 -119 -163 -214 -206
-378 -23 -87 -26 -114 -23 -228 2 -71 2 -129 2 -129 -1 0 -14 19 -29 42 -59
91 -239 338 -246 338 -10 0 12 -73 55 -183 19 -48 31 -85 28 -83 -4 2 -110 63
-237 136 -346 199 -465 286 -559 409 -161 209 -172 381 -56 881 21 91 46 212
55 270 10 58 23 111 29 119 20 25 211 148 296 191 99 50 229 101 355 141 107
34 141 33 277 -10z m1903 -563 c39 -40 81 -85 94 -100 l24 -27 -74 -93 c-94
-118 -202 -242 -296 -341 l-75 -79 -132 129 -132 128 31 37 c16 20 118 136
225 257 l194 219 36 -28 c19 -16 67 -61 105 -102z m218 -264 c77 -104 137
-204 252 -427 l108 -209 -25 -25 -26 -25 -52 93 c-97 174 -209 330 -335 469
-73 81 -72 73 -24 135 24 30 46 55 49 55 3 0 27 -30 53 -66z m2456 -40 c193
-86 330 -406 277 -652 -41 -196 -138 -296 -283 -295 -210 2 -401 269 -405 568
-3 228 93 383 252 405 59 9 94 3 159 -26z m-2532 -208 c41 -49 108 -139 148
-200 75 -115 175 -289 175 -305 0 -15 -102 -132 -111 -129 -5 2 -74 80 -152
174 -78 94 -186 223 -240 287 -54 64 -97 121 -95 126 1 5 36 48 77 96 l73 86
26 -23 c13 -13 58 -63 99 -112z m-260 -203 c105 -126 217 -261 326 -394 l87
-107 -53 -27 -52 -27 -55 37 -54 37 3 77 c3 100 -12 151 -65 210 -46 51 -105
86 -202 122 -60 21 -99 55 -90 78 2 7 63 82 73 91 0 0 37 -44 82 -97z m-689
46 c28 -5 64 -23 83 -39 l34 -29 -75 -1 c-81 0 -117 -12 -90 -30 26 -16 142
-39 312 -60 288 -37 379 -64 453 -135 49 -49 59 -91 30 -132 l-15 -22 -58 31
c-48 25 -65 29 -108 25 -131 -13 -215 -94 -411 -397 -62 -96 -188 -411 -242
-604 -74 -261 -63 -485 25 -543 30 -20 38 -14 25 21 -10 26 1 37 15 15 3 -6
26 -23 50 -39 l44 -28 -49 -21 c-61 -26 -103 -26 -158 -1 -59 26 -110 81 -251
267 -117 154 -176 215 -252 262 -53 32 -64 28 -41 -16 11 -21 34 -58 50 -83
17 -24 28 -46 26 -48 -2 -2 -34 8 -72 23 -37 15 -106 35 -152 45 -47 9 -86 21
-88 26 -9 32 -33 440 -33 569 0 185 16 277 67 385 29 62 54 93 137 175 163
161 355 296 501 350 115 44 167 51 243 34z m2748 -83 c93 -44 266 -166 281
-198 79 -170 88 -184 165 -262 76 -75 80 -82 99 -154 23 -90 25 -211 5 -250
-29 -55 -461 -472 -626 -605 -142 -114 -289 -261 -276 -274 7 -8 68 27 190
110 65 43 115 73 111 66 -29 -49 -129 -171 -206 -253 -162 -171 -264 -232
-564 -336 -99 -34 -206 -73 -237 -86 -32 -12 -58 -21 -58 -20 0 2 6 19 14 37
25 63 28 79 14 79 -27 0 -91 -64 -149 -151 -69 -104 -85 -115 -137 -99 -73 23
-292 159 -292 180 0 4 24 10 54 14 100 11 94 18 -36 47 -194 42 -392 113 -573
203 -156 79 -378 218 -460 289 l-40 35 1 138 c1 166 22 256 110 477 94 237
146 330 239 423 94 94 153 127 241 132 60 4 65 2 160 -52 54 -30 102 -58 108
-60 6 -3 -2 -15 -19 -27 -16 -12 -62 -55 -102 -95 -53 -54 -83 -95 -117 -164
-69 -138 -61 -158 24 -58 95 113 210 202 350 273 117 59 187 82 439 146 128
32 265 70 304 84 39 13 72 23 73 22 2 -1 -15 -25 -36 -52 -21 -27 -37 -51 -34
-54 9 -9 172 110 312 228 159 134 227 185 352 261 l85 52 76 -4 c62 -4 91 -11
155 -42z m1334 -417 c-13 -48 -76 -179 -87 -179 -3 0 -3 34 0 74 6 72 8 76 49
115 24 22 44 38 46 36 2 -2 -2 -22 -8 -46z m-126 -96 c-29 -133 -35 -149 -66
-175 -17 -15 -52 -34 -76 -43 -47 -15 -152 -21 -151 -7 0 4 12 40 27 81 l28
74 54 14 c30 8 82 29 115 48 33 18 63 34 68 34 4 1 5 -11 1 -26z"/>
<path d="M3377 8587 c-127 -192 -203 -442 -214 -703 -7 -151 5 -247 48 -402
53 -190 144 -344 238 -403 l24 -15 -32 -63 c-59 -120 -107 -173 -201 -221 -61
-32 -189 -39 -297 -16 -43 9 -86 18 -95 20 -28 6 -21 -11 24 -60 70 -76 105
-89 234 -89 107 0 112 1 186 38 123 61 224 188 273 348 l18 57 -37 33 c-57 50
-141 173 -160 235 -6 19 -2 23 27 28 46 9 103 67 123 128 23 70 16 215 -14
281 -11 26 -18 47 -15 47 3 0 18 -14 34 -31 34 -36 37 -22 8 41 -42 92 -117
143 -211 143 -32 0 -58 3 -58 6 0 3 6 32 14 64 14 58 38 97 61 97 7 0 46 -24
86 -54 41 -30 75 -50 77 -46 5 13 -27 71 -65 118 -20 24 -32 46 -29 50 4 3 35
8 70 10 70 5 139 -13 215 -54 24 -13 48 -24 54 -24 16 0 -1 126 -29 210 -14
41 -37 95 -51 120 -27 46 -130 160 -144 160 -4 0 -37 -22 -72 -49 -91 -68 -90
-68 -67 -10 11 29 18 54 16 56 -2 2 -19 -21 -39 -50z m29 -703 c13 -9 36 -41
51 -72 36 -73 45 -208 18 -278 -28 -73 -79 -100 -140 -72 -24 11 -37 39 -61
141 -6 25 -4 27 23 27 60 0 103 59 103 142 0 45 -29 104 -55 114 -8 4 -15 11
-15 16 0 13 45 2 76 -18z m-112 -50 c31 -30 13 -74 -30 -74 -35 0 -48 61 -16
79 23 14 28 14 46 -5z"/>
<path d="M2410 8175 c-202 -57 -320 -232 -320 -476 0 -85 3 -99 29 -144 39
-68 96 -118 167 -146 48 -18 78 -23 164 -23 114 0 182 19 250 69 25 19 36 22
42 12 6 -9 13 -6 27 12 70 91 51 301 -41 444 -58 91 -167 176 -225 177 -17 1
-17 1 0 11 10 6 64 14 120 18 l102 7 -50 24 c-64 30 -185 37 -265 15z m142
-202 c96 -52 157 -144 185 -278 18 -92 12 -111 -48 -155 -86 -62 -267 -91
-377 -61 -90 25 -152 115 -152 220 l0 45 35 -41 c44 -51 81 -67 149 -61 104 9
174 96 163 204 -6 61 -24 99 -67 141 l-31 31 46 -9 c26 -5 69 -21 97 -36z
m-263 -75 c18 -48 -27 -84 -62 -50 -18 18 -19 25 -9 47 15 33 59 35 71 3z"/>
<path d="M533 7881 c-53 -25 -83 -71 -83 -129 0 -83 44 -112 76 -49 34 66 55
78 109 57 l25 -10 -26 -40 c-32 -47 -41 -113 -24 -166 17 -50 87 -124 177
-186 40 -28 73 -54 73 -59 0 -15 -86 -10 -136 7 -25 8 -48 13 -50 11 -8 -7 87
-107 117 -122 15 -8 48 -15 73 -15 37 0 52 6 81 32 40 34 79 103 71 123 -2 7
-45 29 -94 50 -49 20 -101 48 -117 62 -58 54 -75 161 -32 201 13 12 28 22 34
22 6 0 53 -34 103 -75 51 -42 95 -73 98 -71 16 17 -136 209 -224 282 -102 86
-179 109 -251 75z"/>
<path d="M2592 7200 c-99 -50 -142 -115 -142 -215 0 -45 30 -118 63 -153 12
-13 43 -35 69 -48 l47 -24 31 41 c38 47 96 79 142 78 l33 0 -37 -16 c-44 -18
-48 -30 -12 -39 40 -10 104 2 128 25 26 24 36 19 36 -18 1 -25 1 -25 15 -7 20
26 19 51 -2 86 -44 75 -151 80 -277 12 l-74 -40 -25 26 c-64 67 -56 139 27
231 80 87 82 91 59 91 -11 0 -47 -14 -81 -30z"/>
<path d="M1723 7191 c-34 -22 -63 -67 -63 -100 0 -20 1 -20 34 -4 l34 16 30
-34 c16 -19 54 -63 85 -99 72 -82 104 -143 178 -337 109 -286 197 -440 319
-563 73 -72 221 -178 303 -215 192 -88 345 -21 363 158 l6 52 -20 -31 c-20
-31 -93 -97 -100 -90 -2 3 3 15 12 28 20 30 46 132 46 179 l0 37 53 4 c38 3
64 12 89 31 27 21 46 27 84 27 70 0 113 26 147 90 15 29 27 65 27 81 0 35 10
40 130 72 162 44 240 52 296 33 26 -9 51 -16 56 -16 4 0 8 28 8 63 -1 108 -51
184 -131 194 -39 6 -42 4 -34 -13 19 -45 37 -105 33 -109 -2 -3 -42 -12 -89
-21 -46 -8 -137 -29 -203 -45 -255 -64 -454 -55 -718 31 -274 90 -577 266
-770 449 -72 67 -80 81 -49 81 31 0 33 15 6 40 -35 33 -118 39 -162 11z m454
-452 c164 -107 284 -161 483 -217 210 -60 294 -74 447 -74 l115 0 -6 -31 c-8
-39 -38 -71 -68 -72 -13 0 -54 -16 -93 -35 -59 -30 -80 -35 -136 -35 -53 0
-73 5 -96 22 -26 19 -38 20 -115 16 -70 -5 -98 -2 -163 18 -89 26 -180 81
-219 132 -18 23 -38 37 -60 41 -44 8 -112 68 -140 125 -19 37 -66 164 -66 178
0 8 15 -1 117 -68z"/>
<path d="M6760 3933 c-33 -35 -80 -136 -67 -149 8 -9 161 28 207 49 34 17 44
27 42 42 -7 41 -77 95 -123 95 -12 0 -38 -17 -59 -37z"/>
<path d="M6124 2931 c-22 -10 -57 -38 -77 -61 -51 -60 -71 -126 -71 -230 1
-235 149 -440 319 -440 214 0 313 289 190 557 -70 154 -233 232 -361 174z
m199 -90 c19 -11 51 -45 71 -74 87 -126 101 -307 33 -408 -51 -76 -137 -100
-216 -59 -99 50 -183 239 -167 374 7 64 49 149 84 172 56 37 131 35 195 -5z"/>
</g>
</svg>
