<?xml version="1.0" standalone="no"?>
<!DOCTYPE svg PUBLIC "-//W3C//DTD SVG 20010904//EN"
 "http://www.w3.org/TR/2001/REC-SVG-20010904/DTD/svg10.dtd">
<svg version="1.0" xmlns="http://www.w3.org/2000/svg"
 width="1280.000000pt" height="917.000000pt" viewBox="0 0 1280.000000 917.000000"
 preserveAspectRatio="xMidYMid meet">
<metadata>
Created by potrace 1.15, written by Peter Selinger 2001-2017
</metadata>
<g transform="translate(0.000000,917.000000) scale(0.100000,-0.100000)"
fill="#8bc34a" stroke="none">
<path d="M3328 9159 c-22 -12 -23 -35 -2 -43 30 -11 82 -6 95 10 11 14 10 18
-6 30 -22 16 -63 18 -87 3z"/>
<path d="M3185 9136 c-16 -12 -17 -16 -6 -30 17 -20 70 -21 77 -1 8 19 -13 45
-35 45 -10 0 -26 -6 -36 -14z"/>
<path d="M0 9097 c0 -30 86 -127 112 -127 24 0 2 49 -41 91 -48 49 -71 60 -71
36z"/>
<path d="M2690 8845 c-10 -12 -9 -16 3 -21 19 -7 60 14 52 27 -9 14 -41 11
-55 -6z"/>
<path d="M220 8805 c0 -15 31 -62 53 -83 34 -32 44 -11 17 33 -24 38 -70 71
-70 50z"/>
<path d="M7401 8730 c-129 -27 -191 -78 -191 -158 0 -61 27 -105 82 -134 35
-18 58 -22 128 -22 137 1 224 36 256 102 58 122 -105 247 -275 212z"/>
<path d="M350 8648 c0 -30 102 -149 116 -136 12 13 -38 83 -94 132 -18 15 -22
16 -22 4z"/>
<path d="M7211 8421 c-22 -14 -3 -31 34 -31 32 0 54 14 38 23 -20 11 -60 15
-72 8z"/>
<path d="M7809 8389 c-89 -13 -190 -38 -246 -61 -53 -22 -89 -19 -79 7 8 23
-37 47 -92 48 -88 3 -102 -37 -55 -146 16 -35 29 -89 33 -126 6 -73 27 -99 56
-69 14 14 14 21 3 51 -24 66 23 200 64 184 9 -3 40 -52 68 -109 28 -57 59
-111 68 -122 22 -25 65 -46 135 -65 33 -9 61 -21 63 -28 2 -6 -10 -19 -28 -29
-25 -13 -37 -14 -51 -5 -43 27 -138 5 -197 -46 -22 -18 -43 -33 -49 -33 -5 0
-21 18 -36 40 -36 54 -62 53 -77 -2 -12 -49 -91 -133 -156 -167 -72 -38 -71
-35 -24 -86 40 -44 96 -144 85 -154 -9 -9 -85 74 -101 111 -19 42 -34 52 -56
35 -34 -27 -25 -83 18 -108 19 -12 35 -29 35 -38 0 -45 87 -83 172 -74 53 5
59 4 86 -24 21 -21 33 -46 42 -89 18 -93 25 -108 53 -122 25 -12 27 -18 27
-70 -1 -31 -9 -79 -18 -107 -14 -41 -22 -50 -49 -57 -40 -10 -42 -30 -6 -56
l26 -19 -16 -104 c-9 -57 -21 -165 -27 -239 -6 -74 -21 -205 -34 -290 -22
-153 -22 -155 -47 -152 -13 1 -181 34 -374 72 -424 84 -532 102 -790 135 -240
31 -309 48 -469 121 -135 61 -172 86 -159 113 4 9 8 37 8 63 0 92 -110 198
-205 198 -78 0 -302 -72 -322 -103 -4 -7 -8 -24 -8 -39 0 -29 -6 -31 -114 -43
-33 -4 -91 -18 -130 -32 -73 -26 -146 -40 -146 -28 0 3 7 14 16 23 32 32 -2
158 -56 207 -23 21 -31 21 -195 16 -59 -2 -83 3 -150 30 -151 60 -331 49 -452
-30 -83 -54 -88 -62 -88 -150 0 -79 12 -121 52 -180 28 -44 17 -61 -35 -54
-30 4 -41 0 -60 -20 -28 -30 -26 -57 7 -73 26 -14 524 -15 537 -2 12 12 -49
30 -84 24 -62 -9 -302 41 -302 64 0 11 46 18 215 30 191 14 241 28 305 85 28
25 56 45 64 45 13 0 56 -41 56 -53 0 -4 -6 -7 -14 -7 -7 0 -19 -7 -26 -15 -19
-22 11 -81 51 -103 17 -9 41 -24 52 -33 21 -16 19 -17 -44 -24 -67 -7 -99 -18
-87 -31 4 -3 35 -13 70 -21 79 -18 166 -64 229 -121 40 -36 55 -43 77 -39 136
26 223 37 271 35 l56 -3 -70 -17 c-38 -9 -100 -19 -137 -23 -46 -4 -68 -11
-68 -20 0 -17 32 -25 111 -25 49 0 70 4 80 16 9 11 23 14 46 11 71 -12 153 33
153 83 0 21 8 35 27 47 23 15 52 18 201 18 135 1 175 4 182 14 10 17 134 10
245 -14 93 -20 122 -33 128 -57 5 -18 11 -19 44 -14 21 4 55 9 76 12 21 4 87
-3 150 -15 61 -11 213 -34 337 -51 234 -32 742 -111 748 -116 8 -6 -85 -535
-177 -1004 -33 -168 -62 -336 -66 -375 -3 -38 -13 -88 -20 -110 -8 -22 -31
-107 -50 -190 -20 -82 -43 -160 -50 -171 -13 -20 -22 -22 -92 -20 -98 1 -141
-20 -162 -81 -13 -37 -13 -45 3 -87 20 -51 74 -121 115 -148 17 -12 46 -18 83
-18 49 0 60 4 86 29 42 43 58 109 44 181 -22 104 -13 164 67 465 16 61 41 169
56 240 14 72 69 310 121 530 52 220 102 436 113 480 16 68 21 79 37 76 11 -2
43 -5 72 -6 52 -2 71 -13 72 -42 0 -20 59 -62 103 -74 23 -6 61 -8 84 -5 49 6
63 -8 63 -66 0 -121 219 -208 422 -168 120 23 228 98 228 157 0 48 -24 107
-60 144 -74 78 -263 104 -440 60 -105 -26 -103 -26 -115 1 -18 41 -60 53 -175
51 -88 -2 -112 1 -148 18 -30 15 -53 19 -76 15 l-33 -6 11 50 c8 39 14 50 29
50 32 0 739 -123 1438 -250 360 -65 698 -124 750 -131 52 -6 97 -13 101 -15 3
-2 -3 -22 -15 -43 -12 -22 -18 -43 -14 -48 8 -8 46 29 65 62 7 14 41 9 279
-39 320 -66 328 -68 318 -99 -16 -53 -16 -64 4 -89 46 -58 223 -78 389 -43
103 21 140 39 148 70 16 64 -86 102 -316 116 -186 11 -276 25 -567 86 -199 41
-223 48 -223 66 0 18 -2 18 -22 5 -21 -13 -56 -8 -353 48 -181 34 -613 118
-960 188 -346 69 -717 142 -822 163 -150 29 -193 41 -193 53 0 8 23 112 51
230 79 337 88 386 94 519 4 70 13 149 21 178 16 57 106 187 168 241 33 29 43
32 99 32 79 0 184 23 251 53 59 27 126 82 126 103 0 22 -83 107 -146 150 -50
35 -61 38 -116 37 -63 -2 -98 9 -98 30 0 21 -59 86 -116 128 -68 50 -69 64 -6
55 85 -11 332 54 346 91 4 9 -5 38 -19 64 -14 27 -25 56 -25 64 0 9 16 38 35
66 76 111 19 222 -146 283 -75 28 -155 32 -270 15z"/>
<path d="M1946 8236 c-101 -43 -169 -110 -169 -167 0 -27 11 -43 72 -98 l72
-66 -1 -61 c0 -77 16 -103 56 -89 24 9 30 19 41 65 14 64 46 98 143 149 75 40
95 69 95 137 0 57 -18 91 -69 128 -44 33 -163 34 -240 2z"/>
<path d="M8485 8189 c-32 -9 -75 -43 -75 -59 0 -16 31 -40 53 -41 39 -2 80 3
104 12 29 11 31 51 3 79 -21 21 -38 23 -85 9z"/>
<path d="M763 8065 c-29 -12 -33 -19 -33 -53 0 -52 41 -112 121 -177 84 -67
140 -138 257 -325 53 -86 148 -230 210 -320 62 -91 359 -537 661 -992 454
-681 570 -849 663 -958 62 -72 125 -152 140 -177 29 -50 48 -139 48 -225 0
-62 -6 -69 -65 -88 -82 -27 -161 -95 -190 -164 -33 -78 -4 -104 171 -150 112
-29 177 -32 214 -11 38 22 65 18 143 -19 40 -19 99 -39 132 -46 76 -14 125
-30 125 -38 0 -4 -22 -13 -50 -19 -27 -7 -71 -26 -96 -44 -55 -38 -124 -106
-124 -123 0 -18 38 -49 97 -81 53 -28 66 -48 77 -116 7 -42 59 -100 114 -128
113 -57 291 -70 395 -27 90 37 164 86 228 149 53 52 99 73 99 47 0 -20 52 -31
97 -22 38 8 43 7 43 -8 0 -11 -10 -20 -27 -23 -43 -9 -113 -65 -129 -104 -14
-32 -13 -38 4 -71 37 -71 160 -132 266 -132 102 0 221 85 219 155 -1 42 -38
94 -89 125 -25 16 -32 26 -25 33 18 18 13 62 -10 91 -19 24 -27 26 -87 25 -37
0 -75 -4 -86 -8 -23 -9 -235 128 -283 183 -20 24 -40 36 -57 36 -42 0 -38 -15
16 -60 57 -49 108 -122 108 -157 0 -31 -13 -29 -95 16 -38 21 -110 60 -160 87
l-90 49 -112 0 c-61 0 -114 3 -118 7 -4 4 -1 18 8 31 12 18 22 22 48 20 63 -7
129 58 129 127 0 26 7 25 72 -5 29 -14 59 -25 66 -25 18 0 15 25 -8 62 -27 44
-25 109 4 181 17 40 21 59 13 62 -7 2 -30 9 -52 15 -47 14 -215 101 -215 112
0 13 104 -23 168 -58 65 -35 87 -41 97 -24 17 27 -63 93 -113 92 -15 0 -44 11
-65 25 -53 36 -123 42 -180 14 -82 -40 -127 -25 -278 92 -45 34 -70 47 -94 47
-28 0 -42 9 -84 57 -28 31 -60 75 -71 97 -19 40 -19 40 0 61 22 24 11 45 -22
45 -36 0 -75 29 -111 84 -20 30 -77 103 -127 160 -251 293 -641 813 -1135
1516 -87 124 -186 259 -220 300 -34 41 -76 102 -95 135 -18 33 -63 105 -100
160 -79 117 -103 162 -97 178 3 7 26 18 53 25 63 17 94 46 94 88 0 61 -89 131
-227 179 -77 28 -133 31 -180 10z"/>
<path d="M2721 8005 c-53 -17 -101 -60 -101 -92 0 -54 107 -117 200 -117 89
-1 180 62 180 124 0 75 -157 123 -279 85z"/>
<path d="M7385 7991 c-9 -16 3 -31 26 -31 14 0 19 6 17 17 -4 20 -33 29 -43
14z"/>
<path d="M95 7950 c-3 -6 0 -13 9 -16 22 -8 59 -1 64 14 5 15 -64 17 -73 2z"/>
<path d="M5478 7669 c-72 -10 -112 -30 -165 -82 -56 -53 -69 -92 -53 -158 16
-68 10 -79 -44 -79 -59 0 -100 -34 -118 -97 -11 -38 -20 -51 -52 -67 -56 -30
-67 -52 -37 -77 44 -36 130 -17 141 31 5 23 11 25 80 31 112 9 170 38 170 86
0 32 15 36 112 25 46 -5 109 -6 141 -2 114 16 216 84 239 162 25 83 -41 180
-143 210 -68 21 -196 29 -271 17z"/>
<path d="M384 7526 c-13 -33 35 -73 59 -50 9 10 -11 42 -33 54 -16 8 -22 8
-26 -4z"/>
<path d="M486 7462 c-3 -5 10 -22 29 -36 63 -48 42 -85 -49 -87 -110 -2 -152
-29 -76 -49 37 -10 43 -17 73 -78 17 -36 43 -74 57 -84 47 -34 142 -60 217
-61 64 0 81 4 147 36 122 61 162 128 122 205 -42 81 -119 113 -321 136 -77 9
-152 19 -166 22 -15 3 -29 1 -33 -4z"/>
<path d="M213 7445 c-37 -16 -66 -55 -57 -78 12 -33 80 -38 153 -12 83 29 85
47 10 86 -45 22 -63 23 -106 4z"/>
<path d="M1680 7283 c-74 -39 -82 -54 -45 -94 47 -48 93 -68 140 -60 108 20
158 88 105 141 -48 48 -122 52 -200 13z"/>
<path d="M2635 7263 c-52 -11 -75 -26 -75 -48 0 -42 74 -85 147 -85 56 0 93
21 93 53 0 61 -79 99 -165 80z"/>
<path d="M7278 7209 c-21 -12 -24 -58 -4 -84 31 -42 187 -4 169 41 -15 39
-124 67 -165 43z"/>
<path d="M157 7153 c-4 -3 -7 -15 -7 -25 0 -23 42 -25 61 -2 10 13 10 17 -2
25 -17 10 -43 12 -52 2z"/>
<path d="M2923 7124 c-7 -19 20 -44 47 -44 27 0 54 25 47 44 -4 11 -19 16 -47
16 -28 0 -43 -5 -47 -16z"/>
<path d="M7972 7077 c-15 -18 -5 -27 30 -27 18 0 28 5 28 15 0 8 -4 15 -9 15
-5 0 -16 2 -24 5 -7 3 -19 0 -25 -8z"/>
<path d="M3201 7071 c-20 -13 -6 -39 24 -47 53 -13 77 23 30 44 -31 14 -36 14
-54 3z"/>
<path d="M2580 7061 c0 -4 9 -20 21 -35 19 -25 22 -25 50 -11 36 19 37 28 4
43 -30 14 -75 16 -75 3z"/>
<path d="M3332 7043 c2 -10 13 -19 26 -21 24 -4 29 7 10 26 -18 18 -40 15 -36
-5z"/>
<path d="M3550 7047 c-27 -9 -35 -17 -35 -37 0 -53 104 -65 127 -14 20 44 -31
72 -92 51z"/>
<path d="M6802 7043 c4 -21 74 -31 92 -13 16 16 -10 30 -57 30 -31 0 -38 -3
-35 -17z"/>
<path d="M865 7030 c-12 -19 10 -32 46 -28 48 4 46 32 -3 36 -20 2 -39 -2 -43
-8z"/>
<path d="M2015 7030 c-16 -27 68 -76 108 -64 22 7 37 22 37 37 0 25 -131 49
-145 27z"/>
<path d="M4208 7019 c-24 -14 -23 -33 5 -64 26 -30 92 -44 126 -26 28 16 30
76 2 91 -25 13 -111 13 -133 -1z"/>
<path d="M3822 7004 c-50 -35 -14 -77 61 -72 38 3 42 6 45 33 6 50 -57 74
-106 39z"/>
<path d="M7750 6987 c0 -31 51 -50 66 -25 8 13 -22 38 -48 38 -10 0 -18 -6
-18 -13z"/>
<path d="M6896 6934 c-9 -8 -16 -21 -16 -28 0 -39 89 -68 143 -47 34 13 34 25
-2 62 -23 22 -39 29 -70 29 -23 0 -46 -7 -55 -16z"/>
<path d="M7346 6911 c-8 -12 3 -41 15 -41 5 0 9 7 9 15 0 8 0 18 1 22 1 12
-19 15 -25 4z"/>
<path d="M7794 6905 c-8 -21 22 -65 45 -65 26 0 34 28 16 56 -17 27 -53 32
-61 9z"/>
<path d="M7020 6842 c-19 -15 -22 -25 -16 -54 10 -52 36 -71 97 -69 64 1 129
18 130 34 3 31 -4 64 -17 85 -13 20 -22 22 -93 22 -61 0 -84 -4 -101 -18z"/>
<path d="M2132 6780 c-63 -13 -136 -57 -188 -113 -42 -44 -46 -52 -41 -84 8
-48 49 -108 95 -137 20 -13 73 -37 117 -52 101 -35 112 -42 85 -61 -44 -31
-18 -74 80 -137 26 -16 35 -29 35 -49 1 -36 23 -56 68 -64 42 -6 87 17 87 45
0 9 -14 29 -32 43 l-32 27 37 35 c20 19 37 41 37 50 0 35 -22 68 -55 84 -19 9
-35 20 -35 24 0 4 24 21 53 38 76 43 108 81 114 133 11 114 -119 206 -312 221
-38 3 -89 2 -113 -3z"/>
<path d="M6023 6783 c-12 -2 -27 -11 -33 -19 -30 -36 59 -70 105 -40 24 16 33
40 18 49 -15 9 -68 14 -90 10z"/>
<path d="M8145 6741 c-44 -20 -95 -73 -95 -98 0 -9 20 -35 44 -59 42 -43 45
-44 108 -44 81 0 157 22 187 54 20 21 23 33 18 72 -2 25 -11 53 -19 61 -36 35
-179 44 -243 14z"/>
<path d="M6632 6734 c-12 -8 -22 -23 -22 -34 0 -14 -11 -20 -52 -25 -67 -9
-84 -18 -103 -55 -27 -53 -20 -86 27 -120 60 -44 109 -54 182 -40 34 7 76 18
94 26 32 13 33 16 31 62 -2 41 1 52 25 75 24 24 27 34 22 65 -3 20 -13 43 -23
49 -25 19 -153 17 -181 -3z"/>
<path d="M7013 6630 c-18 -11 -33 -26 -33 -34 0 -60 158 -86 195 -33 20 29 19
43 -5 67 -27 27 -113 28 -157 0z"/>
<path d="M7989 6551 c-20 -16 -22 -22 -11 -33 17 -17 46 1 50 31 4 26 -9 27
-39 2z"/>
<path d="M3250 6531 c-96 -34 -126 -100 -77 -172 50 -74 137 -103 286 -97 136
5 204 51 204 138 0 51 -25 87 -84 120 -39 22 -58 25 -159 28 -94 2 -125 -1
-170 -17z"/>
<path d="M5885 6500 c-4 -7 -3 -16 3 -22 14 -14 47 -6 47 12 0 18 -40 26 -50
10z"/>
<path d="M7258 6468 c-61 -22 -19 -55 55 -43 84 13 96 23 52 43 -31 14 -70 14
-107 0z"/>
<path d="M8633 6446 c-90 -22 -102 -44 -52 -101 28 -32 36 -35 83 -34 28 0 69
6 91 13 34 10 40 16 43 42 2 22 -5 40 -23 63 -30 35 -55 38 -142 17z"/>
<path d="M6712 6417 c7 -20 58 -41 71 -28 15 15 0 27 -41 35 -24 4 -32 2 -30
-7z"/>
<path d="M6133 6370 c-41 -17 -25 -30 35 -30 68 0 95 12 64 29 -24 13 -68 13
-99 1z"/>
<path d="M6002 6359 c-32 -12 -22 -35 14 -31 34 4 49 16 40 31 -8 13 -23 13
-54 0z"/>
<path d="M4327 6294 c-11 -12 3 -24 28 -24 13 0 26 4 29 9 10 15 -43 29 -57
15z"/>
<path d="M3622 6268 c-22 -22 -14 -40 16 -36 33 4 47 48 15 48 -11 0 -24 -5
-31 -12z"/>
<path d="M8127 6254 c-14 -14 -7 -43 16 -70 17 -20 29 -25 45 -20 30 10 38 44
16 67 -21 20 -66 34 -77 23z"/>
<path d="M10204 6227 c-9 -24 4 -37 36 -37 53 0 51 32 -2 45 -20 5 -29 3 -34
-8z"/>
<path d="M5595 6147 c-79 -45 -52 -87 57 -87 56 0 69 3 78 19 15 29 13 39 -15
66 -30 31 -68 32 -120 2z"/>
<path d="M6040 6079 c0 -4 14 -9 31 -13 42 -8 49 -8 49 3 0 5 -18 11 -40 13
-22 2 -40 1 -40 -3z"/>
<path d="M4416 6055 c-32 -13 -69 -34 -82 -46 -73 -68 -28 -193 83 -235 60
-23 190 -15 261 16 102 44 126 108 73 192 -60 95 -205 127 -335 73z"/>
<path d="M10475 6070 c-29 -11 -42 -30 -50 -71 -8 -45 1 -52 69 -51 72 1 106
16 106 46 0 38 -10 56 -41 71 -31 17 -54 18 -84 5z"/>
<path d="M10173 6049 c-19 -19 -25 -20 -57 -9 -86 28 -238 6 -318 -46 -67 -43
-74 -136 -16 -209 22 -28 109 -75 140 -75 11 0 15 -6 11 -20 -6 -24 18 -28 36
-6 8 10 23 13 44 9 61 -9 149 15 272 76 66 33 130 62 143 66 41 12 21 31 -28
27 -33 -4 -86 10 -110 28 l-25 19 49 44 c31 27 47 48 42 55 -9 15 -41 16 -66
2 -10 -5 -32 -7 -49 -4 -27 6 -29 9 -24 35 7 36 -13 39 -44 8z"/>
<path d="M7127 5972 c-20 -22 -22 -43 -5 -60 16 -16 0 -28 -53 -36 -75 -12
-136 -95 -98 -133 20 -20 0 -31 -83 -43 -135 -19 -206 -60 -240 -136 -16 -37
-17 -50 -8 -84 15 -57 61 -104 138 -142 62 -31 74 -33 162 -32 75 0 112 6 177
27 94 31 136 65 153 124 20 65 6 105 -57 173 -31 33 -53 64 -49 67 4 4 21 12
39 18 19 6 37 21 45 37 11 24 10 34 -7 74 -26 58 -26 58 5 89 24 24 25 28 11
48 -20 31 -105 37 -130 9z"/>
<path d="M9608 5959 c-10 -5 -18 -17 -18 -24 0 -20 54 -20 70 0 24 29 -14 47
-52 24z"/>
<path d="M6453 5910 c-27 -11 -39 -50 -24 -78 14 -26 74 -46 109 -37 37 9 72
44 72 72 0 41 -96 67 -157 43z"/>
<path d="M10495 5881 c-9 -16 33 -32 73 -29 l37 4 -37 17 c-42 19 -64 21 -73
8z"/>
<path d="M5950 5863 c-49 -25 -51 -50 -5 -69 46 -19 96 -10 126 22 18 20 21
29 13 42 -16 24 -90 27 -134 5z"/>
<path d="M3988 5819 c-36 -20 -15 -69 29 -69 33 0 83 27 83 45 0 30 -74 46
-112 24z"/>
<path d="M5737 5802 c-25 -27 -21 -42 12 -42 37 0 59 24 41 45 -17 20 -33 19
-53 -3z"/>
<path d="M5045 5799 c-88 -15 -228 -59 -298 -95 -77 -39 -107 -43 -107 -15 0
33 -88 53 -144 31 -19 -7 -26 -17 -26 -35 0 -32 10 -51 66 -128 24 -33 51 -83
60 -113 10 -35 22 -55 34 -59 43 -14 51 16 20 67 -25 42 -29 158 -5 178 19 16
33 4 127 -107 97 -116 120 -132 225 -150 48 -8 90 -17 93 -20 3 -2 -8 -16 -24
-29 -19 -17 -34 -23 -45 -18 -53 25 -156 -14 -192 -73 -11 -18 -26 -33 -33
-33 -7 0 -28 16 -46 35 -47 48 -75 45 -76 -10 -1 -56 -27 -100 -98 -168 -57
-55 -60 -60 -41 -71 28 -15 165 -154 165 -166 0 -20 -66 24 -121 82 -61 62
-89 69 -89 19 0 -36 25 -68 65 -85 18 -8 36 -23 39 -34 10 -31 72 -55 135 -53
31 1 73 3 93 4 50 2 86 -33 134 -130 30 -62 41 -75 65 -80 37 -7 45 -23 60
-112 14 -82 5 -116 -36 -131 -34 -13 -31 -27 10 -47 38 -18 40 -24 50 -118 3
-33 19 -123 35 -200 63 -307 131 -864 196 -1615 14 -162 30 -315 35 -340 11
-49 23 -462 14 -490 -4 -14 -21 -18 -76 -22 -76 -6 -112 -24 -138 -70 -32 -55
24 -147 133 -223 48 -33 61 -37 112 -36 78 1 105 26 112 105 4 46 0 65 -26
118 -17 35 -35 81 -42 103 -6 22 -15 168 -20 324 -6 157 -12 292 -15 300 -2 9
-14 214 -25 456 -11 242 -25 510 -30 595 -5 85 -16 292 -24 460 -20 390 -29
480 -61 616 -17 72 -25 132 -23 170 3 57 4 59 28 54 14 -3 59 -5 100 -5 114 0
175 46 156 118 -8 34 -61 86 -94 93 -15 3 -36 9 -47 14 -16 6 -13 9 20 14 114
18 155 28 211 56 66 32 134 98 134 129 0 28 -68 82 -163 131 -79 40 -83 41
-150 35 l-68 -7 -53 50 c-29 28 -85 67 -125 87 -79 39 -88 61 -24 57 47 -4
204 45 271 84 53 31 53 50 2 109 -55 63 -53 104 4 112 57 9 61 83 5 83 -10 0
-20 11 -24 28 -18 72 -98 128 -231 162 -83 22 -93 22 -169 9z"/>
<path d="M3327 5750 c-75 -65 -71 -132 9 -171 40 -19 50 -20 92 -9 63 15 92
35 92 64 0 31 -109 146 -139 146 -11 0 -36 -13 -54 -30z"/>
<path d="M4347 5743 c-23 -22 18 -38 59 -23 23 9 25 13 14 20 -17 11 -64 13
-73 3z"/>
<path d="M11263 5733 c-17 -6 -17 -43 0 -43 8 0 21 8 30 18 24 26 6 40 -30 25z"/>
<path d="M6220 5700 c-11 -11 -22 -31 -26 -45 -12 -50 28 -70 171 -83 113 -11
135 -7 135 24 0 30 -50 87 -94 108 -51 24 -160 22 -186 -4z"/>
<path d="M2943 5648 c-26 -12 -36 -37 -27 -62 8 -21 55 -46 88 -46 79 0 137
69 89 106 -21 16 -119 17 -150 2z"/>
<path d="M5670 5653 c-22 -8 -60 -45 -60 -58 0 -41 80 -58 145 -31 39 16 43
34 19 71 -13 19 -25 25 -53 24 -20 0 -43 -3 -51 -6z"/>
<path d="M1710 5616 c0 -30 19 -45 64 -53 77 -12 83 22 10 56 -57 27 -74 27
-74 -3z"/>
<path d="M9213 5468 c-24 -26 -30 -67 -13 -97 23 -44 152 -66 210 -36 35 18
50 43 50 82 0 58 -18 68 -127 71 -93 4 -99 2 -120 -20z"/>
<path d="M5597 5473 c-3 -5 -2 -15 3 -22 10 -17 43 -6 38 12 -6 15 -34 22 -41
10z"/>
<path d="M5677 5443 c-15 -14 -6 -44 16 -52 26 -10 57 3 57 24 0 24 -56 46
-73 28z"/>
<path d="M8813 5423 c-58 -11 -42 -63 20 -63 33 0 97 32 97 49 0 19 -57 26
-117 14z"/>
<path d="M3303 5408 c-30 -14 -29 -34 2 -54 56 -37 155 -26 155 16 0 43 -98
66 -157 38z"/>
<path d="M2150 5376 c0 -8 7 -22 16 -31 15 -15 18 -15 32 -1 13 12 13 18 2 30
-16 20 -50 21 -50 2z"/>
<path d="M1383 5335 c-29 -19 -53 -39 -53 -44 0 -12 42 -47 80 -66 46 -24 80
-21 127 8 48 31 67 53 60 71 -8 20 -77 54 -124 61 -32 5 -46 1 -90 -30z"/>
<path d="M4644 5339 c-9 -15 11 -33 30 -26 9 4 13 13 10 22 -7 17 -30 20 -40
4z"/>
<path d="M2015 5308 c-52 -19 -114 -67 -121 -95 -15 -57 67 -132 144 -133 61
0 151 28 179 56 31 32 32 92 0 122 -43 40 -152 67 -202 50z"/>
<path d="M3561 5307 c-13 -6 -24 -16 -25 -22 -2 -15 60 -18 85 -4 22 11 22 12
4 25 -23 17 -33 17 -64 1z"/>
<path d="M5845 5294 c-12 -12 -13 -19 -4 -30 16 -19 78 -18 85 1 15 38 -49 61
-81 29z"/>
<path d="M6047 5282 c-23 -25 -21 -38 5 -56 30 -21 50 -20 81 4 30 24 27 42
-9 59 -35 16 -58 14 -77 -7z"/>
<path d="M3000 5272 c0 -10 33 -42 43 -42 15 0 6 30 -12 40 -24 12 -31 13 -31
2z"/>
<path d="M6225 5260 c-19 -4 -29 -11 -27 -21 10 -40 54 -53 72 -20 20 39 7 52
-45 41z"/>
<path d="M8882 5233 c2 -12 14 -19 36 -21 36 -4 41 4 15 24 -26 20 -55 18 -51
-3z"/>
<path d="M11767 5189 c11 -11 169 -39 218 -39 56 1 2 20 -102 35 -119 18 -130
18 -116 4z"/>
<path d="M5974 5165 c-39 -39 -30 -74 26 -102 81 -42 170 -23 170 36 0 52 -52
91 -123 91 -38 0 -53 -5 -73 -25z"/>
<path d="M2555 5151 c-7 -13 33 -50 62 -57 13 -4 30 -3 39 0 14 5 14 9 3 22
-28 33 -91 55 -104 35z"/>
<path d="M12114 5142 c9 -15 104 -35 146 -30 l35 4 -40 12 c-60 18 -150 27
-141 14z"/>
<path d="M6685 5126 c-17 -12 -17 -16 -5 -31 30 -37 109 -60 111 -32 6 63 -56
100 -106 63z"/>
<path d="M8502 5118 c3 -20 9 -23 46 -22 55 1 76 19 38 34 -15 5 -41 10 -57
10 -26 0 -30 -3 -27 -22z"/>
<path d="M3188 5061 c-27 -25 -31 -33 -22 -48 13 -21 44 -31 107 -32 87 -2
110 56 37 94 -46 24 -85 19 -122 -14z"/>
<path d="M2691 5067 c-15 -19 -4 -27 41 -27 44 0 50 16 12 30 -33 13 -39 13
-53 -3z"/>
<path d="M12572 5059 c6 -18 87 -37 166 -38 113 -2 39 31 -102 45 -57 6 -68 5
-64 -7z"/>
<path d="M8620 5031 c-24 -13 -36 -26 -38 -45 -3 -23 3 -29 40 -46 61 -28 125
-26 171 5 46 32 52 75 12 93 -41 19 -145 15 -185 -7z"/>
<path d="M9415 5015 c-70 -38 -121 -106 -145 -195 -17 -63 -85 -170 -208 -323
-58 -73 -161 -207 -228 -299 -67 -92 -243 -326 -392 -520 -148 -194 -382 -504
-519 -688 -138 -184 -297 -396 -354 -472 -59 -77 -137 -196 -179 -273 -89
-162 -134 -212 -267 -298 -130 -85 -157 -94 -231 -79 -71 15 -127 15 -210 2
-132 -22 -212 -62 -212 -108 0 -39 38 -109 85 -159 35 -37 47 -43 81 -43 54 0
71 -16 77 -73 3 -34 16 -65 42 -103 47 -68 43 -90 -12 -67 -31 13 -62 14 -168
10 -202 -9 -230 -24 -218 -115 6 -45 2 -51 -100 -135 -83 -68 -87 -146 -10
-228 66 -71 109 -88 254 -101 97 -8 147 -8 229 2 146 18 180 16 152 -12 -19
-19 -15 -26 28 -48 63 -32 117 -24 141 23 7 12 16 61 20 108 5 62 13 98 30
128 23 41 23 42 5 56 -26 19 -56 2 -56 -31 0 -36 -25 -80 -77 -136 -75 -80
-87 -68 -88 88 -1 133 -8 149 -95 195 -33 17 -60 36 -60 40 0 12 35 29 60 29
11 0 32 -7 46 -16 35 -24 137 -13 203 21 64 32 71 32 71 -6 0 -34 16 -69 31
-69 6 0 28 20 50 44 46 50 123 94 224 126 39 12 74 26 78 30 5 4 1 20 -9 35
-20 31 -33 175 -16 175 20 0 44 -60 46 -114 1 -44 4 -51 23 -54 26 -4 63 41
63 77 0 15 -8 31 -20 39 -16 9 -18 17 -10 36 17 46 -44 96 -118 96 -83 0 -109
51 -77 156 19 64 19 104 0 104 -24 0 -17 32 20 96 47 79 96 124 135 124 33 0
50 24 31 43 -20 20 -11 47 42 125 30 42 78 120 107 172 155 275 513 806 1068
1585 67 94 136 196 154 228 18 33 60 91 94 130 33 40 100 124 148 187 110 146
120 152 194 133 96 -25 180 1 223 69 16 27 19 46 17 98 -4 73 -21 115 -58 141
-37 27 -99 33 -135 14z"/>
<path d="M9857 4973 c-17 -16 -3 -35 50 -70 65 -44 93 -89 93 -153 0 -67 26
-102 108 -143 l70 -35 -25 -24 c-13 -13 -34 -53 -46 -89 -22 -63 -23 -65 -102
-111 -52 -31 -80 -54 -80 -65 0 -30 41 -27 123 9 76 32 80 33 240 34 162 2
164 2 228 34 36 17 81 47 100 66 76 77 22 155 -124 179 -35 6 -42 10 -36 23
28 64 14 140 -34 191 -46 48 -84 59 -227 67 -104 6 -115 9 -201 50 -88 42
-123 52 -137 37z"/>
<path d="M8385 4926 c-11 -8 -16 -19 -12 -30 8 -21 70 -22 88 0 11 14 10 18
-6 30 -24 18 -46 18 -70 0z"/>
<path d="M2585 4919 c-4 -6 -1 -15 6 -20 20 -13 54 -6 54 11 0 18 -50 26 -60
9z"/>
<path d="M6804 4891 c-109 -18 -146 -107 -62 -152 28 -15 131 -15 186 0 41 12
42 12 42 57 0 60 -13 81 -58 94 -40 11 -47 11 -108 1z"/>
<path d="M8125 4837 c-26 -20 -10 -37 34 -37 47 0 72 23 42 39 -27 15 -53 14
-76 -2z"/>
<path d="M8262 4840 c-32 -13 -38 -38 -15 -61 25 -26 146 -48 171 -33 23 15
27 67 7 88 -18 18 -123 22 -163 6z"/>
<path d="M8566 4819 c-30 -24 -34 -49 -8 -49 20 0 52 29 52 48 0 21 -18 22
-44 1z"/>
<path d="M8052 4784 c-21 -9 -3 -24 29 -24 20 0 29 4 27 13 -5 13 -35 19 -56
11z"/>
<path d="M7704 4728 c-9 -14 23 -38 52 -38 33 0 38 16 12 34 -26 19 -54 21
-64 4z"/>
<path d="M8567 4733 c-4 -3 -7 -17 -7 -30 0 -24 -50 -63 -81 -63 -9 0 -46 16
-83 35 -63 33 -96 37 -96 11 0 -7 5 -17 11 -23 15 -15 1 -38 -54 -90 -56 -53
-62 -78 -39 -145 16 -46 24 -56 63 -75 103 -50 278 -55 379 -12 70 30 130 97
130 146 0 49 -17 74 -118 172 -83 80 -93 87 -105 74z"/>
<path d="M7840 4712 l-25 -21 22 -23 c17 -16 39 -24 85 -28 35 -4 71 -4 81 -2
23 6 18 36 -7 40 -11 2 -27 13 -35 24 -24 29 -90 35 -121 10z"/>
<path d="M11700 4670 c0 -12 45 -24 60 -15 5 3 8 11 5 16 -8 12 -65 12 -65 -1z"/>
<path d="M12364 4635 c-8 -21 4 -35 30 -35 29 0 61 24 52 38 -10 17 -75 15
-82 -3z"/>
<path d="M7650 4633 c-151 -25 -240 -94 -240 -185 0 -57 48 -104 179 -172 61
-31 113 -61 116 -66 4 -6 15 -10 26 -10 18 0 20 4 14 39 -6 34 -3 41 21 60 16
12 35 20 44 18 92 -28 149 -39 166 -33 18 7 18 8 -3 26 -28 23 -29 49 -3 100
32 63 27 93 -27 149 -36 37 -62 53 -102 65 -51 15 -133 19 -191 9z"/>
<path d="M12493 4603 c-20 -7 -15 -41 6 -53 26 -14 64 -13 79 2 19 19 14 28
-23 44 -36 15 -42 16 -62 7z"/>
<path d="M4785 4573 c-49 -12 -58 -44 -23 -88 18 -24 27 -27 63 -23 99 12 137
62 68 91 -47 19 -82 26 -108 20z"/>
<path d="M9412 4565 c-62 -19 -82 -41 -82 -86 0 -29 8 -47 31 -74 43 -48 93
-61 184 -45 59 11 76 18 108 50 58 59 49 117 -26 151 -50 22 -151 24 -215 4z"/>
<path d="M6170 4403 c-14 -9 -40 -29 -57 -44 -39 -34 -105 -54 -236 -74 -131
-20 -195 -61 -232 -147 -47 -113 106 -178 315 -134 154 33 212 88 189 180 -16
63 -6 89 54 153 49 52 51 56 32 69 -24 18 -35 18 -65 -3z"/>
<path d="M5280 4392 c0 -15 24 -32 45 -32 29 0 37 10 24 27 -12 14 -69 18 -69
5z"/>
<path d="M4336 4357 c-19 -14 -19 -15 2 -26 28 -15 54 -14 78 3 23 18 17 25
-27 32 -21 3 -41 0 -53 -9z"/>
<path d="M3850 4316 c0 -13 20 -26 41 -26 15 0 10 27 -7 34 -24 9 -34 7 -34
-8z"/>
<path d="M5345 4320 c-8 -14 15 -47 43 -59 43 -20 58 13 22 49 -21 21 -55 27
-65 10z"/>
<path d="M4900 4272 c0 -15 28 -47 35 -40 11 11 -5 48 -21 48 -8 0 -14 -4 -14
-8z"/>
<path d="M8307 4273 c-15 -14 -6 -31 24 -43 24 -10 33 -10 42 -1 9 10 7 17
-12 32 -24 20 -43 24 -54 12z"/>
<path d="M4457 4250 c-21 -31 -8 -55 39 -70 40 -13 96 -6 113 14 9 11 6 20
-12 41 -18 21 -35 29 -74 32 -44 5 -52 2 -66 -17z"/>
<path d="M7908 4233 c-26 -7 -22 -50 7 -78 16 -17 35 -25 57 -25 112 0 179 70
96 99 -30 11 -126 13 -160 4z"/>
<path d="M7755 4164 c-9 -9 -14 -23 -11 -31 3 -8 6 -17 6 -19 0 -13 31 -1 40
15 24 45 0 69 -35 35z"/>
<path d="M10570 4082 c-47 -26 -70 -84 -49 -127 28 -56 60 -70 167 -70 80 0
103 4 132 21 76 44 77 105 2 158 -37 27 -52 30 -130 34 -72 3 -93 0 -122 -16z"/>
<path d="M9051 4061 c-21 -21 -37 -82 -27 -106 7 -20 44 -33 110 -41 63 -8
134 19 161 60 16 24 16 28 0 52 -24 37 -74 54 -155 54 -56 0 -74 -4 -89 -19z"/>
<path d="M5640 3990 c-15 -15 -19 -25 -12 -32 15 -15 46 -5 50 16 6 32 -14 40
-38 16z"/>
<path d="M4673 3973 c-62 -31 -52 -74 20 -94 50 -13 103 -6 128 17 25 23 24
40 -6 69 -29 30 -91 33 -142 8z"/>
<path d="M6310 3954 c-25 -9 -53 -24 -64 -34 -18 -18 -18 -19 2 -47 11 -16 36
-37 55 -48 35 -18 36 -18 108 6 89 29 97 47 49 103 -37 41 -73 46 -150 20z"/>
<path d="M3025 3876 c-17 -7 -39 -21 -48 -31 -17 -17 -17 -18 0 -38 24 -26 78
-48 100 -40 52 18 80 76 50 102 -23 18 -70 22 -102 7z"/>
<path d="M9087 3749 c-20 -11 -23 -59 -5 -77 16 -16 60 -15 82 1 15 11 17 17
7 35 -16 31 -62 53 -84 41z"/>
<path d="M4655 3710 c-7 -11 39 -25 54 -15 6 3 11 10 11 16 0 12 -57 12 -65
-1z"/>
<path d="M5855 3700 c-8 -13 21 -54 50 -70 47 -25 77 33 33 64 -25 18 -74 21
-83 6z"/>
<path d="M3835 3676 c-19 -14 -19 -16 -3 -32 20 -21 82 -24 100 -6 30 30 -61
66 -97 38z"/>
<path d="M7610 3682 c0 -13 25 -22 57 -22 15 0 23 5 21 13 -5 14 -78 23 -78 9z"/>
<path d="M4000 3642 c-30 -24 -18 -42 26 -42 41 0 57 26 29 46 -24 18 -28 18
-55 -4z"/>
<path d="M9701 3639 c-47 -19 -61 -56 -40 -102 14 -32 49 -47 103 -47 35 0 51
6 75 29 42 39 40 65 -6 95 -45 29 -98 39 -132 25z"/>
<path d="M8567 3531 c-80 -21 -137 -69 -163 -138 -16 -41 -16 -46 5 -102 30
-82 28 -91 -15 -91 -28 0 -44 -8 -70 -34 -29 -29 -34 -41 -34 -82 0 -46 -2
-50 -38 -69 -52 -28 -55 -60 -8 -80 61 -26 120 -1 128 55 3 23 8 25 70 31 91
8 148 44 148 94 0 27 4 35 18 35 233 1 300 17 373 90 60 60 71 109 39 175 -26
53 -69 89 -140 116 -66 25 -217 25 -313 0z"/>
<path d="M10710 3520 c-13 -9 -11 -13 9 -31 33 -27 66 -22 66 11 0 21 -5 25
-30 28 -16 1 -37 -2 -45 -8z"/>
<path d="M9500 3495 c-28 -30 -23 -37 25 -37 44 0 49 4 41 37 -8 32 -35 33
-66 0z"/>
<path d="M10634 3429 c-18 -20 -18 -21 1 -35 26 -19 48 -18 76 4 31 26 20 52
-24 52 -22 0 -41 -8 -53 -21z"/>
<path d="M9810 3396 c-27 -33 39 -62 80 -36 12 7 12 13 4 27 -14 24 -67 29
-84 9z"/>
<path d="M4962 3334 c-26 -18 -28 -41 -5 -66 20 -22 12 -31 -38 -47 -69 -22
-102 -81 -69 -124 11 -14 20 -30 20 -35 0 -5 -30 -18 -67 -27 -141 -37 -213
-98 -213 -181 0 -109 158 -214 322 -214 96 0 251 60 299 116 22 26 29 72 19
120 -9 39 -48 82 -133 147 -41 31 -47 47 -19 47 26 0 52 31 52 62 0 14 -13 44
-30 66 -30 42 -39 72 -20 72 19 0 11 59 -9 70 -29 15 -83 12 -109 -6z"/>
<path d="M6880 3271 c-13 -25 -13 -141 0 -141 13 0 30 66 30 118 0 45 -13 55
-30 23z"/>
<path d="M9933 3240 c-30 -12 -29 -38 2 -52 21 -10 29 -9 43 5 13 13 14 21 6
34 -13 21 -24 24 -51 13z"/>
<path d="M10006 3167 c-16 -12 -16 -14 -2 -26 19 -16 36 -6 36 20 0 22 -9 24
-34 6z"/>
<path d="M10103 3065 c-34 -15 -43 -41 -21 -63 19 -19 82 -14 111 8 39 31 28
48 -43 65 -8 2 -30 -2 -47 -10z"/>
<path d="M6862 3058 c-15 -20 -23 -71 -12 -88 15 -23 31 1 37 54 6 46 -4 59
-25 34z"/>
<path d="M7207 2932 c-46 -28 -30 -82 24 -82 31 0 45 26 35 65 -8 31 -27 36
-59 17z"/>
<path d="M10242 2904 c-12 -8 -22 -21 -22 -28 0 -20 34 -46 61 -46 27 0 89 34
89 49 0 17 -44 41 -75 41 -17 0 -41 -7 -53 -16z"/>
<path d="M6556 2874 c-17 -17 -21 -80 -7 -103 12 -18 126 -26 179 -12 43 12
48 20 43 71 -5 49 -26 60 -117 60 -62 0 -87 -4 -98 -16z"/>
<path d="M3110 2860 c-39 -39 -18 -70 45 -70 72 0 100 57 40 80 -39 15 -63 12
-85 -10z"/>
<path d="M3362 2764 c-48 -33 -11 -81 55 -71 59 10 79 40 47 71 -20 20 -73 20
-102 0z"/>
<path d="M6800 2765 c-19 -23 -24 -97 -7 -119 14 -19 15 -19 31 6 12 18 16 42
14 74 -3 50 -17 65 -38 39z"/>
<path d="M3580 2673 c0 -4 4 -14 9 -22 11 -17 45 -7 39 12 -5 13 -48 23 -48
10z"/>
<path d="M3682 2652 c-23 -7 -13 -42 15 -53 30 -11 60 9 50 34 -6 15 -44 26
-65 19z"/>
<path d="M6843 2571 c-48 -22 -76 -66 -71 -114 4 -43 56 -67 158 -74 65 -5 82
-2 124 18 27 13 58 36 69 50 19 26 19 27 -1 73 -26 57 -47 66 -155 66 -59 0
-94 -6 -124 -19z"/>
<path d="M7210 2560 c-27 -27 -17 -42 18 -29 32 12 45 31 29 41 -18 12 -25 10
-47 -12z"/>
<path d="M3885 2526 c-30 -22 -12 -46 35 -46 28 0 43 5 47 16 7 19 -20 44 -47
44 -9 0 -25 -6 -35 -14z"/>
<path d="M4240 2515 c-10 -12 -6 -18 21 -34 38 -23 59 -14 59 25 0 21 -5 24
-34 24 -18 0 -39 -7 -46 -15z"/>
<path d="M4750 2440 c-9 -17 -6 -23 22 -40 32 -19 88 -27 101 -14 9 10 -20 61
-38 68 -34 13 -74 6 -85 -14z"/>
<path d="M4065 2428 c-27 -15 -35 -28 -35 -59 0 -35 26 -56 88 -70 97 -23 166
19 127 77 -36 55 -128 82 -180 52z"/>
<path d="M8023 2386 c-44 -20 -55 -62 -23 -88 34 -28 131 -25 165 5 31 26 26
51 -14 72 -43 22 -93 26 -128 11z"/>
<path d="M8363 2274 c-61 -22 -93 -56 -93 -98 0 -34 2 -36 52 -51 64 -19 117
-19 144 -1 21 15 71 107 76 141 3 18 -3 20 -67 22 -42 1 -87 -4 -112 -13z"/>
<path d="M4965 2231 c-83 -15 -124 -54 -113 -107 5 -26 50 -55 95 -61 53 -7
150 14 174 38 18 18 18 22 4 57 -9 20 -24 45 -33 54 -21 20 -74 28 -127 19z"/>
<path d="M7212 2218 c-29 -29 3 -82 36 -61 25 15 22 67 -3 71 -11 1 -26 -3
-33 -10z"/>
<path d="M5864 2159 c-9 -16 15 -29 53 -29 38 0 51 15 24 29 -26 14 -68 14
-77 0z"/>
<path d="M7205 2110 c-9 -15 14 -40 36 -40 24 0 33 18 19 35 -14 17 -46 20
-55 5z"/>
<path d="M7672 2108 c-15 -15 -16 -38 -2 -38 12 0 23 25 18 40 -2 7 -7 7 -16
-2z"/>
<path d="M5862 2065 c-173 -39 -256 -147 -189 -246 27 -40 75 -69 177 -104 41
-15 101 -38 133 -52 43 -20 61 -23 69 -15 9 9 7 17 -6 31 -22 25 -18 49 14 72
21 16 31 17 60 9 89 -26 186 -9 123 22 -28 14 -28 15 -25 90 3 73 2 77 -28
112 -70 79 -198 111 -328 81z"/>
<path d="M6966 2058 c-18 -10 -18 -12 -2 -23 20 -15 56 -8 56 10 0 7 -7 16
-16 19 -19 7 -15 8 -38 -6z"/>
<path d="M7992 2058 c-30 -30 1 -84 53 -94 74 -14 118 59 55 91 -35 18 -91 20
-108 3z"/>
<path d="M8948 2024 c-16 -8 -28 -18 -28 -23 0 -19 33 -34 74 -35 71 -2 96 37
40 63 -33 14 -53 13 -86 -5z"/>
<path d="M6492 1898 c-8 -8 -9 -15 -1 -25 21 -25 69 -9 69 24 0 16 -52 17 -68
1z"/>
<path d="M7489 1871 c-19 -16 -22 -23 -13 -37 48 -79 174 -73 174 7 0 36 -24
49 -88 49 -34 0 -57 -6 -73 -19z"/>
<path d="M8055 1880 c-11 -17 22 -40 56 -40 30 0 47 16 32 31 -17 17 -80 23
-88 9z"/>
<path d="M3548 1830 c-48 -14 -106 -52 -117 -76 -32 -70 58 -133 192 -134 105
0 177 37 177 93 0 90 -134 153 -252 117z"/>
<path d="M6223 1699 c-41 -12 -42 -32 -4 -70 24 -23 38 -29 73 -29 84 0 149
62 102 97 -20 15 -122 16 -171 2z"/>
<path d="M4411 1639 c-48 -55 -88 -77 -196 -103 -103 -25 -146 -49 -177 -98
-56 -85 -45 -147 32 -185 77 -40 226 -25 347 34 96 47 112 87 68 173 -33 65
-32 81 11 150 20 32 33 63 29 69 -3 6 -21 11 -38 11 -26 0 -40 -10 -76 -51z"/>
<path d="M6082 1618 c-16 -16 -15 -43 2 -57 21 -18 54 32 36 54 -15 18 -22 19
-38 3z"/>
<path d="M5926 1147 c-12 -9 -17 -23 -14 -47 l3 -35 66 0 c53 0 72 4 89 20 14
13 32 18 52 16 40 -4 33 21 -8 30 -16 3 -39 11 -51 17 -29 16 -115 15 -137 -1z"/>
<path d="M7103 1074 c-9 -24 10 -36 33 -19 16 13 17 16 4 25 -21 14 -30 12
-37 -6z"/>
<path d="M3163 844 c-25 -11 -12 -25 20 -22 17 2 32 8 32 13 0 11 -33 17 -52
9z"/>
<path d="M2363 720 c-43 -18 -16 -52 41 -52 63 0 78 32 25 51 -37 13 -37 13
-66 1z"/>
<path d="M2522 698 c-18 -18 -15 -36 7 -43 20 -6 71 10 71 23 0 15 -24 32 -45
32 -12 0 -26 -5 -33 -12z"/>
<path d="M5465 650 c-15 -25 16 -150 38 -150 16 0 3 128 -15 146 -11 12 -18
13 -23 4z"/>
<path d="M6691 645 c-123 -38 -167 -176 -81 -249 46 -38 92 -49 194 -44 153 7
234 62 244 167 4 43 1 50 -27 79 -19 18 -54 38 -83 47 -63 18 -188 18 -247 0z"/>
<path d="M7040 636 c0 -16 21 -26 56 -26 31 0 32 26 2 34 -37 10 -58 7 -58 -8z"/>
<path d="M5507 434 c-18 -18 0 -104 22 -104 14 0 21 43 13 75 -8 29 -23 41
-35 29z"/>
<path d="M5525 130 c-17 -54 31 -157 56 -120 19 30 -13 140 -41 140 -5 0 -12
-9 -15 -20z"/>
</g>
</svg>
